<svg width="63" height="9" viewBox="0 0 63 9" fill="none" xmlns="http://www.w3.org/2000/svg">
<path d="M9.18019 8.86766V4.89717C9.18019 3.37481 8.34002 2.38242 6.8999 2.38242C6.17999 2.38242 5.39994 2.64709 4.85986 3.50745C4.44005 2.77943 3.84011 2.38242 2.94008 2.38242C2.33987 2.38242 1.74021 2.58077 1.25999 3.30879V2.51476H0V8.86766H1.25999V5.36021C1.25999 4.23547 1.80007 3.70581 2.64025 3.70581C3.47988 3.70581 3.90024 4.30149 3.90024 5.36021V8.86766H5.16024V5.36021C5.16024 4.23547 5.7599 3.70581 6.53995 3.70581C7.38012 3.70581 7.79994 4.30149 7.79994 5.36021V8.86766H9.18019ZM27.8399 2.51476H25.8001V0.595678H24.5401V2.51476H23.4001V3.77183H24.5398V6.68391C24.5398 8.13994 25.0799 9 26.52 9C27.0601 9 27.6597 8.80164 28.0801 8.53696L27.7199 7.34561C27.3599 7.61029 26.9401 7.6766 26.64 7.6766C26.0401 7.6766 25.8001 7.27959 25.8001 6.61759V3.77183H27.8399V2.51476ZM38.52 2.38211C37.8001 2.38211 37.3202 2.77943 37.0201 3.30879V2.51476H35.7601V8.86766H37.0201V5.29419C37.0201 4.23547 37.4399 3.63979 38.2199 3.63979C38.4599 3.63979 38.76 3.70611 39 3.77213L39.3599 2.44874C39.12 2.38242 38.76 2.38211 38.52 2.38211ZM22.3801 3.04411C21.7799 2.58077 20.94 2.38242 20.0399 2.38242C18.6001 2.38242 17.6402 3.17645 17.6402 4.43383C17.6402 5.49285 18.3601 6.08822 19.6201 6.28688L20.22 6.35321C20.8801 6.48525 21.2401 6.68391 21.2401 7.01491C21.2401 7.47794 20.7601 7.80894 19.9199 7.80894C19.08 7.80894 18.42 7.47794 17.9999 7.14725L17.4 8.20596C18.06 8.73532 18.96 9 19.8598 9C21.5399 9 22.5001 8.13995 22.5001 6.94859C22.5001 5.82355 21.72 5.22787 20.5199 5.02951L19.9199 4.96319C19.3799 4.89687 18.96 4.76483 18.96 4.36781C18.96 3.90447 19.3799 3.63979 20.0399 3.63979C20.7601 3.63979 21.48 3.97049 21.84 4.16915L22.3801 3.04411ZM55.8601 2.38242C55.1399 2.38242 54.66 2.77943 54.3599 3.30879V2.51476H53.0999V8.86766H54.3599V5.29419C54.3599 4.23547 54.78 3.63979 55.5597 3.63979C55.8 3.63979 56.1001 3.70611 56.3401 3.77213L56.7 2.44874C56.4601 2.38242 56.1001 2.38242 55.8601 2.38242ZM39.78 5.69121C39.78 7.61028 40.9799 9 42.8401 9C43.68 9 44.2799 8.80164 44.8799 8.27228L44.2799 7.14725C43.8 7.54426 43.32 7.74262 42.78 7.74262C41.7599 7.74262 41.04 6.94858 41.04 5.69121C41.04 4.50015 41.7599 3.70581 42.78 3.63979C43.32 3.63979 43.8 3.83815 44.2799 4.23547L44.8799 3.11044C44.2799 2.58078 43.68 2.38242 42.8401 2.38242C40.9799 2.38242 39.78 3.77213 39.78 5.69121ZM51.4201 2.51476H50.1601V3.30879C49.74 2.71342 49.1401 2.38242 48.36 2.38242C46.7401 2.38242 45.4801 3.77213 45.4801 5.69121C45.4801 7.61028 46.7401 9 48.36 9C49.1999 9 49.8001 8.6693 50.1601 8.07362V8.86766H51.4201V2.51476ZM46.7999 5.69121C46.7999 4.56617 47.46 3.63979 48.5399 3.63979C49.5599 3.63979 50.2801 4.50015 50.2801 5.69121C50.2801 6.81624 49.5599 7.74262 48.5399 7.74262C47.46 7.6763 46.7999 6.81624 46.7999 5.69121ZM31.7401 2.38242C30.06 2.38242 28.8599 3.70581 28.8599 5.69121C28.8599 7.6766 30.0598 9 31.8 9C32.6399 9 33.48 8.73532 34.1401 8.13994L33.5399 7.14725C33.06 7.54426 32.46 7.80894 31.8601 7.80894C31.08 7.80894 30.3 7.41192 30.1199 6.28659H34.3801V5.75753C34.4402 3.70581 33.3603 2.38242 31.7401 2.38242ZM31.7401 3.57348C32.5199 3.57348 33.0602 4.10313 33.18 5.09583H30.18C30.3 4.23547 30.8401 3.57348 31.7401 3.57348ZM63 0H61.74V3.30879C61.3199 2.71342 60.72 2.38242 59.9399 2.38242C58.32 2.38242 57.06 3.77213 57.06 5.69121C57.06 7.61028 58.32 9 59.9399 9C60.7801 9 61.38 8.6693 61.74 8.07362V8.86766H63V0ZM58.3801 5.69121C58.3801 4.56617 59.0399 3.63979 60.12 3.63979C61.1401 3.63979 61.86 4.50015 61.86 5.69121C61.86 6.81624 61.1401 7.74262 60.12 7.74262C59.0399 7.6763 58.3801 6.81624 58.3801 5.69121ZM16.2599 2.51476H14.9999V3.30879C14.5799 2.71342 13.9799 2.38242 13.1999 2.38242C11.5799 2.38242 10.3199 3.77213 10.3199 5.69121C10.3199 7.61028 11.5799 9 13.1999 9C14.0401 9 14.64 8.6693 14.9999 8.07362V8.86766H16.2599V2.51476ZM11.5799 5.69121C11.5799 4.56617 12.24 3.63979 13.3199 3.63979C14.3399 3.63979 15.0601 4.50015 15.0601 5.69121C15.0601 6.81624 14.3399 7.74262 13.3199 7.74262C12.24 7.6763 11.5799 6.81624 11.5799 5.69121Z" fill="black"/>
</svg>
