<svg width="47" height="13" viewBox="0 0 47 13" fill="none" xmlns="http://www.w3.org/2000/svg">
<path d="M7.9557 0.63082C7.3666 0.210613 6.59788 0 5.64953 0H1.97804C1.68731 0 1.5267 0.150864 1.49619 0.452228L0.00468157 10.1666C-0.0108191 10.262 0.0121865 10.3493 0.0734879 10.4286C0.134439 10.5081 0.211101 10.5476 0.302912 10.5476H2.04685C2.35272 10.5476 2.52084 10.3971 2.55171 10.0953L2.96468 7.4764C2.97976 7.34947 3.03356 7.24628 3.12537 7.16681C3.21711 7.08748 3.33186 7.03559 3.46954 7.01179C3.60723 6.98821 3.73705 6.97635 3.85966 6.97635C3.98191 6.97635 4.12717 6.98436 4.29571 7.00015C4.46383 7.01602 4.571 7.02373 4.61695 7.02373C5.93247 7.02373 6.96506 6.63911 7.71477 5.86907C8.46414 5.09932 8.83924 4.03192 8.83924 2.66665C8.83924 1.73024 8.54452 1.05168 7.9557 0.63082ZM6.06265 3.54767C5.98592 4.10331 5.78728 4.46821 5.46605 4.64287C5.14474 4.81775 4.68582 4.90465 4.08929 4.90465L3.332 4.92852L3.72218 2.38086C3.75262 2.20641 3.85201 2.11908 4.02041 2.11908H4.45654C5.06815 2.11908 5.51206 2.21056 5.78742 2.39279C6.06265 2.57546 6.15446 2.96059 6.06265 3.54767Z" fill="#434343"/>
<path d="M46.7015 0H45.0036C44.8349 0 44.7356 0.0873307 44.7053 0.26192L43.2136 10.1666L43.1906 10.2142C43.1906 10.294 43.2213 10.369 43.2826 10.4405C43.3434 10.5118 43.4202 10.5475 43.5119 10.5475H45.0266C45.3168 10.5475 45.4775 10.397 45.5085 10.0952L47 0.356965V0.333313C46.9999 0.111128 46.9002 0 46.7015 0Z" fill="#424242"/>
<path d="M26.187 3.83324C26.187 3.75406 26.1562 3.67852 26.0954 3.6072C26.034 3.53581 25.9651 3.49993 25.8888 3.49993H24.1219C23.9533 3.49993 23.8156 3.57969 23.7088 3.73798L21.2765 7.45245L20.2669 3.88098C20.1901 3.62714 20.0219 3.49993 19.762 3.49993H18.0408C17.9642 3.49993 17.8953 3.53574 17.8345 3.6072C17.7731 3.67852 17.7427 3.75413 17.7427 3.83324C17.7427 3.86526 17.8919 4.33328 18.1901 5.23803C18.4883 6.14292 18.8096 7.11914 19.1539 8.16689C19.4981 9.21435 19.6777 9.77021 19.6931 9.83331C18.4386 11.6112 17.8115 12.5636 17.8115 12.6904C17.8115 12.8969 17.9109 13 18.1098 13H19.8767C20.045 13 20.1826 12.9208 20.2898 12.762L26.1412 3.9999C26.1717 3.96831 26.187 3.913 26.187 3.83324Z" fill="#434343"/>
<path d="M42.6399 3.49993H40.8959C40.6816 3.49993 40.5519 3.76185 40.506 4.28569C40.1079 3.65108 39.3816 3.3332 38.3259 3.3332C37.2245 3.3332 36.2873 3.76185 35.515 4.619C34.7423 5.47623 34.3562 6.48432 34.3562 7.6429C34.3562 8.5796 34.62 9.32555 35.1477 9.88091C35.6755 10.4368 36.383 10.7143 37.2705 10.7143C37.714 10.7143 38.1653 10.6188 38.6242 10.4285C39.0832 10.2381 39.4424 9.98425 39.7029 9.66665C39.7029 9.68259 39.6873 9.75391 39.6569 9.88083C39.6261 10.008 39.611 10.1035 39.611 10.1665C39.611 10.4208 39.7102 10.5475 39.9094 10.5475H41.4928C41.7831 10.5475 41.9516 10.397 41.9974 10.0952L42.9383 3.88091C42.9534 3.78565 42.9305 3.69846 42.8694 3.61899C42.8081 3.53974 42.7318 3.49993 42.6399 3.49993ZM39.6454 8.19047C39.2553 8.58732 38.785 8.78563 38.2342 8.78563C37.7904 8.78563 37.4312 8.65885 37.1557 8.40472C36.8803 8.15117 36.7426 7.80192 36.7426 7.35711C36.7426 6.77018 36.9338 6.27385 37.3163 5.86907C37.6984 5.46429 38.173 5.2619 38.7391 5.2619C39.167 5.2619 39.5228 5.3929 39.8061 5.65475C40.0889 5.91667 40.2307 6.27792 40.2307 6.73823C40.2306 7.30959 40.0355 7.79384 39.6454 8.19047Z" fill="#424242"/>
<path d="M16.5723 3.49993H14.8284C14.6139 3.49993 14.4842 3.76185 14.4382 4.28569C14.0252 3.65108 13.2985 3.3332 12.2582 3.3332C11.1568 3.3332 10.2196 3.76185 9.4472 4.619C8.67455 5.47623 8.28844 6.48432 8.28844 7.6429C8.28844 8.5796 8.55237 9.32555 9.08017 9.88091C9.60796 10.4368 10.3153 10.7143 11.2027 10.7143C11.6308 10.7143 12.0747 10.6188 12.5336 10.4285C12.9925 10.2381 13.3597 9.98425 13.6351 9.66665C13.5737 9.85711 13.5432 10.0238 13.5432 10.1665C13.5432 10.4208 13.6426 10.5475 13.8415 10.5475H15.4249C15.7153 10.5475 15.8838 10.397 15.9297 10.0952L16.8705 3.88091C16.8856 3.78565 16.8626 3.69846 16.8017 3.61899C16.7405 3.53974 16.6641 3.49993 16.5723 3.49993ZM13.5778 8.20226C13.1876 8.59161 12.7093 8.78563 12.1436 8.78563C11.6997 8.78563 11.344 8.65885 11.0765 8.40472C10.8087 8.15117 10.6749 7.80192 10.6749 7.35711C10.6749 6.77018 10.866 6.27385 11.2487 5.86907C11.6308 5.46429 12.1051 5.2619 12.6713 5.2619C13.0995 5.2619 13.4552 5.3929 13.7384 5.65475C14.0212 5.91667 14.1629 6.27792 14.1629 6.73823C14.1629 7.32553 13.9679 7.81378 13.5778 8.20226Z" fill="#434343"/>
<path d="M34.0233 0.63082C33.4343 0.210613 32.6657 0 31.7172 0H28.0687C27.7625 0 27.5942 0.150865 27.5638 0.452229L26.0723 10.1665C26.0568 10.262 26.0797 10.3492 26.1411 10.4285C26.2018 10.508 26.2787 10.5475 26.3705 10.5475H28.2521C28.4356 10.5475 28.558 10.4445 28.6193 10.2381L29.0324 7.47632C29.0475 7.3494 29.1011 7.24621 29.193 7.16673C29.2848 7.08741 29.3994 7.03552 29.5372 7.01172C29.6748 6.98814 29.8047 6.97628 29.9273 6.97628C30.0496 6.97628 30.1949 6.98429 30.3632 7.00008C30.5315 7.01594 30.6388 7.02366 30.6844 7.02366C32.0002 7.02366 33.0326 6.63904 33.7823 5.869C34.5319 5.09925 34.9067 4.03185 34.9067 2.66658C34.9068 1.73024 34.6121 1.05168 34.0233 0.63082ZM31.6713 4.54761C31.3347 4.78566 30.8298 4.90465 30.1568 4.90465L29.4225 4.92852L29.8127 2.38086C29.843 2.20641 29.9424 2.11908 30.1109 2.11908H30.5238C30.8603 2.11908 31.128 2.13495 31.3272 2.16661C31.5257 2.19863 31.7172 2.29753 31.9008 2.46419C32.0845 2.63092 32.1761 2.87304 32.1761 3.19049C32.1761 3.85711 32.0077 4.30941 31.6713 4.54761Z" fill="#424242"/>
</svg>
