<svg width="34" height="11" viewBox="0 0 34 11" fill="none" xmlns="http://www.w3.org/2000/svg">
<path d="M30.031 3.98878C30.031 3.98878 30.552 6.5383 30.6685 7.07288H28.379C28.6052 6.46291 29.4758 4.09158 29.4758 4.09158C29.4621 4.11214 29.702 3.4679 29.8391 3.0704L30.031 3.98878ZM8.26008 10.8355L12.5923 0.198753H9.67903L6.98508 7.46353L6.69032 5.99002L5.73065 1.09657C5.57298 0.418068 5.08629 0.226168 4.48307 0.198753H0.047984L0 0.411214C1.08306 0.685357 2.0496 1.08286 2.89274 1.58317L5.34677 10.8355H8.26008ZM14.731 10.8492L16.4585 0.198753H13.7028L11.9823 10.8492H14.731ZM24.321 7.36758C24.3347 6.1545 23.5944 5.22927 22.0109 4.46852C21.0444 3.98192 20.4548 3.65295 20.4548 3.15264C20.4685 2.70031 20.9552 2.23426 22.0383 2.23426C22.9363 2.2137 23.5944 2.42616 24.0879 2.63862L24.3347 2.75513L24.7117 0.452335C24.1702 0.239874 23.3065 0 22.244 0C19.5226 0 17.6101 1.45296 17.5964 3.52273C17.5758 5.05108 18.9673 5.90092 20.0093 6.41494C21.0718 6.93581 21.4351 7.27849 21.4351 7.73768C21.4214 8.45045 20.5714 8.77942 19.7831 8.77942C18.6863 8.77942 18.0968 8.60808 17.1988 8.21057L16.8355 8.03923L16.4516 10.4311C17.096 10.7258 18.2887 10.9863 19.5226 11C22.4153 11.0068 24.3004 9.57443 24.321 7.36758ZM34 10.8492L31.779 0.198753H29.6472C28.9891 0.198753 28.4887 0.390653 28.2077 1.08286L24.1153 10.8492H27.0081C27.0081 10.8492 27.481 9.53331 27.5839 9.25232H31.121C31.2032 9.62926 31.45 10.8492 31.45 10.8492H34Z" fill="#545454"/>
</svg>
