<svg width="18" height="18" viewBox="0 0 18 18" fill="none" xmlns="http://www.w3.org/2000/svg">
<path fill-rule="evenodd" clip-rule="evenodd" d="M9 0C4.02944 0 0 4.02944 0 9C0 13.9706 4.02944 18 9 18C13.9706 18 18 13.9706 18 9C18 4.02944 13.9706 0 9 0ZM12.7506 5.906C13.1637 6.01935 13.489 6.35333 13.5994 6.77746C13.8 7.54614 13.8 9.15 13.8 9.15C13.8 9.15 13.8 10.7538 13.5994 11.5225C13.489 11.9467 13.1637 12.2807 12.7506 12.3941C12.002 12.6 9 12.6 9 12.6C9 12.6 5.99798 12.6 5.24935 12.3941C4.83627 12.2807 4.51096 11.9467 4.40056 11.5225C4.2 10.7538 4.2 9.15 4.2 9.15C4.2 9.15 4.2 7.54614 4.40056 6.77746C4.51096 6.35333 4.83627 6.01935 5.24935 5.906C5.99798 5.7 9 5.7 9 5.7C9 5.7 12.002 5.7 12.7506 5.906Z" fill="black"/>
<path d="M8.1 10.8V7.8L10.5 9.30006L8.1 10.8Z" fill="black"/>
</svg>
